<?xml version="1.0" encoding="UTF-8"?>
<svg id="Layer_2" data-name="Layer 2" xmlns="http://www.w3.org/2000/svg" viewBox="0 0 1859.14 580.69">
  <defs>
    <style>
      .cls-1 {
        opacity: .1;
      }

      .cls-2 {
        fill: #a239ea;
      }

      .cls-3 {
        fill: #be1e2d;
      }

      .cls-4 {
        fill: #5c33f6;
      }
    </style>
  </defs>
  <g id="Layer_3" data-name="Layer 3">
    <g>
      <g>
        <path class="cls-3" d="M1551.64,402.1c0-3.81,2.68-6.49,6.49-6.49,3.4,0,6.49,2.68,6.49,6.49s-3.09,6.39-6.49,6.39c-3.81,0-6.49-2.58-6.49-6.39Z"/>
        <path class="cls-3" d="M1619.66,333.97v74.11h-4.23v-4.33c-4.23,3.3-9.48,4.84-14.74,4.84-12.99,0-24.22-10.41-24.22-23.6v-5.26c0-13.19,11.23-23.6,24.22-23.6,5.36,0,10.51,1.65,14.74,4.95v-27.11h4.23Zm-38.96,45.76v5.26c0,10.93,9.17,19.48,20,19.48,5.46,0,11.03-2.37,14.74-6.29v-31.54c-3.81-4.02-9.17-6.6-14.74-6.6-10.93,0-20,8.86-20,19.69Z"/>
        <path class="cls-3" d="M1633.68,334.48c0-1.65,1.34-2.99,2.99-2.99,1.55,0,2.99,1.34,2.99,2.99,0,1.44-1.44,2.89-2.99,2.89-1.65,0-2.99-1.44-2.99-2.89Zm.93,74.11v-51.54h4.12v51.54h-4.12Z"/>
        <path class="cls-3" d="M1653.16,386.33v-7.01c0-11.96,10-21.96,22.06-21.96,7.11,0,13.92,3.61,18.04,9.38,.93-5.15,4.33-8.86,11.54-8.86v4.12c-5.36,0-7.63,2.47-7.63,7.01l-.21,47.1c0,13.92-8.97,29.79-24.84,29.79-8.14,0-16.29-4.43-16.29-13.71,0-16.18,18.24-18.66,30.41-18.66,2.16,0,4.54,0,6.6,.21,0-5.26,.1-8.66,.1-14.33-4.12,5.15-11.03,8.86-17.73,8.86-12.06,0-22.06-10-22.06-21.95Zm4.23-7.01v7.01c0,9.79,7.94,17.83,17.83,17.83,8.35,0,17.21-7.21,17.73-15.87,.1-2.89,.1-6.8,.1-9.69,0-9.48-8.76-17.11-17.83-17.11-9.89,0-17.83,8.04-17.83,17.83Zm2.58,52.77c0,6.29,5.67,9.59,11.65,9.59,13.3,0,20.51-11.54,21.23-23.71-2.37-.21-4.64-.31-7.01-.31-9.79,0-25.87,1.96-25.87,14.43Z"/>
        <path class="cls-3" d="M1715.62,334.48c0-1.65,1.34-2.99,2.99-2.99,1.55,0,2.99,1.34,2.99,2.99,0,1.44-1.44,2.89-2.99,2.89-1.65,0-2.99-1.44-2.99-2.89Zm.93,74.11v-51.54h4.12v51.54h-4.12Z"/>
        <path class="cls-3" d="M1742.1,393.95v-32.88h-7.21v-4.02h7.21v-15.77h4.23v15.77h17.83v4.02h-17.83v32.88c0,6.91,3.2,10.51,10.2,10.51,1.86,0,3.71-.41,6.39-1.44l1.44,3.92c-2.99,1.13-5.57,1.65-7.83,1.65-9.59,0-14.43-5.05-14.43-14.64Z"/>
        <path class="cls-3" d="M1821.26,408.18c-8.66,0-10.51-3.5-10.72-9.28-3.81,5.98-10.93,9.69-18.14,9.69-10.41,0-20.31-5.46-20.31-17.01s11.65-13.71,20.31-13.71c6.29,0,12.16,.72,18.14,2.27-.52-11.85-7.83-18.76-20.31-18.76-4.02,0-8.55,1.13-12.88,3.61l-1.96-3.4c4.74-2.99,10.1-4.12,14.95-4.12,4.43,0,8.76,.72,12.58,2.78,11.34,5.67,11.75,16.29,11.75,25.97,0,2.99-.1,6.6-.1,9.38,0,5.88,.93,8.66,6.7,8.66v3.92Zm-10.72-23.91c-6.08-1.44-12.78-2.58-18.97-2.58-7.11,0-15.87,2.68-15.46,10.93,.31,8.35,8.97,12.06,16.29,12.06,8.86,0,18.14-8.45,18.14-17.73v-2.68Z"/>
        <path class="cls-3" d="M1832.19,394.06v-60.09h4.12v60.09c0,6.8,3.2,10.41,10.1,10.41,2.06,0,4.12-.52,6.39-1.34l1.34,3.81c-2.78,.93-5.36,1.65-7.73,1.65-9.38,0-14.22-5.26-14.22-14.53Z"/>
      </g>
      <g>
        <g>
          <g>
            <path class="cls-4" d="M512.97,393.15v72.54h-28.14V252.15h28.14v10.94c11.88-8.44,27.51-14.38,41.9-14.38,39.08,0,69.72,32.2,69.72,69.72v18.13c0,37.52-30.64,69.72-69.72,69.72-14.69,0-29.7-4.69-41.9-13.13Zm.31-74.72v18.13c0,22.51,18.76,41.27,41.58,41.27s41.27-18.76,41.27-41.27v-18.13c0-22.51-18.76-40.96-41.27-40.96s-41.58,18.45-41.58,40.96Z"/>
            <path class="cls-4" d="M676.45,346.57c5,19.38,23.76,30.95,46.27,30.95,9.07,0,23.45-4.06,38.46-13.44l13.13,25.95c-18.45,11.26-37.52,16.26-52.52,16.26-47.21,0-75.66-29.39-75.66-76.29s24.07-82.23,73.47-82.23c39.71,0,59.4,25.32,59.4,50.65s-20.63,51.59-61.91,51.59c-13.13,0-28.14-1.56-40.64-3.44Zm-.31-30.01c14.07,3.13,27.83,5,40.96,5,21.57,0,32.83-12.19,32.83-23.45s-10.63-21.89-30.95-21.89c-21.89,0-38.14,18.45-42.83,40.33Z"/>
            <path class="cls-4" d="M829,346.57c5,19.38,23.76,30.95,46.27,30.95,9.07,0,23.45-4.06,38.46-13.44l13.13,25.95c-18.45,11.26-37.52,16.26-52.52,16.26-47.21,0-75.66-29.39-75.66-76.29s24.07-82.23,73.47-82.23c39.71,0,59.4,25.32,59.4,50.65s-20.63,51.59-61.91,51.59c-13.13,0-28.14-1.56-40.64-3.44Zm-.31-30.01c14.07,3.13,27.83,5,40.96,5,21.57,0,32.83-12.19,32.83-23.45s-10.63-21.89-30.95-21.89c-21.89,0-38.14,18.45-42.83,40.33Z"/>
            <path class="cls-4" d="M980.91,393.15v72.54h-28.14V252.15h28.14v10.94c11.88-8.44,27.51-14.38,41.9-14.38,39.08,0,69.72,32.2,69.72,69.72v18.13c0,37.52-30.64,69.72-69.72,69.72-14.69,0-29.7-4.69-41.9-13.13Zm.31-74.72v18.13c0,22.51,18.76,41.27,41.58,41.27s41.27-18.76,41.27-41.27v-18.13c0-22.51-18.76-40.96-41.27-40.96s-41.58,18.45-41.58,40.96Z"/>
          </g>
          <g>
            <path class="cls-2" d="M1250.45,249.65l-60.97,78.48,60.97,78.16h-15.63l-53.15-68.16c-17.82,22.82-35.64,45.33-53.15,68.16h-15.32l60.97-78.16-60.97-78.48h15.32l53.15,68.47,53.46-68.47h15.32Z"/>
            <path class="cls-2" d="M1274.75,336.25c-.31,37.2,26.89,57.21,63.16,57.21,11.88,0,27.51-3.44,39.39-10.94l5.94,11.26c-14.38,8.44-31.27,12.51-46.27,12.51-47.21,0-75.35-29.39-75.35-76.29s24.07-82.23,73.16-82.23c37.83,0,56.59,23.45,56.59,46.9s-19.7,48.46-59.72,48.46c-18.76,0-38.77-2.81-56.9-6.88Zm0-13.44c18.45,4.38,38.14,7.82,56.9,7.82,31.27,0,46.9-18.45,46.9-36.27s-15.01-34.39-44.4-34.39c-35.33,0-58.47,26.58-59.4,62.84Z"/>
            <path class="cls-2" d="M1537.33,406.28h-12.51v-97.23c0-25.64-21.57-46.9-48.46-46.9s-48.46,21.26-48.46,46.9l-.31,97.23h-12.51V252.77h12.51v20.32c11.26-14.07,28.76-23.45,48.77-23.45,33.45,0,60.97,27.2,60.97,59.4v97.23Z"/>
          </g>
        </g>
        <g>
          <path class="cls-4" d="M234.23,98.53s-15.53-2.66-29.27-2.95c-11.66-.22-23.08,.39-34.07,2.15-11.01,1.77-21.7,4.48-32.01,7.94,0,0-13.96,5.27-22.91,9.29C45.97,148.54,0,220.92,0,301.54c0,139.42,210.14,147.69,212.19,146.16,1.57,1.01,210.61,65.91,223-57.22,17.52-174.25-95.09-273.79-200.96-291.96Zm89.38,246.57c-39.61,3.75-74.76-25.31-78.51-64.91-3.77-39.61,25.28-74.76,64.89-78.51,39.6-3.77,74.76,25.28,78.54,64.89,3.75,39.61-25.31,74.76-64.91,78.54Z"/>
          <circle class="cls-4" cx="335.85" cy="284.6" r="42.59"/>
          <g>
            <path class="cls-4" d="M459.48,21.02l-.59-.25c-5.4-2.35-12.22-4.33-19.99-7-7.76-2.72-16.84-4.52-26.67-7.11-4.94-1.13-10.18-1.85-15.58-2.81-5.39-1.05-11.03-1.62-16.84-2.23-2.91-.31-5.86-.63-8.84-.96-2.99-.3-6.03-.24-9.1-.38-6.15-.17-12.43-.49-18.83-.15-12.8,.18-26.06,1.25-39.35,3.53-3.33,.54-6.68,1.05-10.01,1.7l-9.96,2.27c-6.7,1.36-13.23,3.44-19.81,5.37-6.56,1.97-12.96,4.42-19.38,6.71-6.25,2.73-12.62,5.09-18.64,8.08-12.19,5.71-23.63,12.37-34.46,19.08-10.76,6.84-20.64,14.23-29.64,21.6-9.12,7.22-17.01,14.9-24.17,22.02-7.2,7.1-22.51,24.03-27.76,30.29l25.6-10.13c2.32-1.84,26.98-22.62,36.22-28.79,9.16-6.3,19.41-11.98,29.84-17.97,10.58-5.75,21.71-11.29,33.35-16.06,5.71-2.65,11.73-4.65,17.62-7.03,6.04-1.97,11.99-4.27,18.12-6.01,6.15-1.68,12.2-3.67,18.41-5l9.23-2.21c3.1-.58,6.19-1.17,9.27-1.75,6.14-1.32,12.31-2.14,18.42-2.9,6.07-1.05,12.15-1.46,18.12-2,5.96-.69,11.87-.72,17.66-.9,5.78-.26,11.45-.23,16.98-.13,11.09-.19,21.51,1.07,31.23,1.59,9.64,1.2,18.62,1.76,26.42,3.31,7.85,1.27,14.83,2.03,20.4,3.39l.5,.1,2.21-7.27Z"/>
            <circle class="cls-4" cx="474.27" cy="29.64" r="17.3"/>
          </g>
          <g>
            <path class="cls-4" d="M538.66,131.25l-.48-.43c-4.34-3.98-10.16-8.07-16.62-13.13-6.45-5.1-14.46-9.75-22.9-15.41-4.31-2.68-9.03-5.06-13.81-7.73-4.76-2.74-9.91-5.12-15.2-7.58-2.65-1.24-5.33-2.5-8.05-3.78-2.73-1.25-5.63-2.19-8.49-3.32-5.76-2.16-11.6-4.51-17.76-6.27-12.16-3.99-25.05-7.3-38.36-9.47-3.32-.58-6.66-1.18-10.02-1.66l-10.15-1.09c-6.78-.9-13.63-1.06-20.48-1.37-6.84-.28-13.69-.04-20.51,.03-6.79,.54-13.59,.7-20.26,1.58-13.38,1.43-26.36,4.01-38.79,6.83-12.41,2.96-24.14,6.74-35.05,10.78-10.97,3.86-33.42,15.28-42.5,19.68l28.43,2.73c4.07-1.16,14.8-5.37,19.07-6.53,10.73-2.9,22.25-5.01,34.06-7.28,11.88-1.99,24.2-3.61,36.77-4.34,6.26-.64,12.61-.58,18.95-.91,6.35,.11,12.73-.14,19.09,.21,6.35,.41,12.73,.5,19.03,1.26l9.45,.92c3.12,.45,6.23,.91,9.34,1.36,6.23,.75,12.33,1.98,18.36,3.25,6.09,.99,11.97,2.57,17.79,4.01,5.87,1.29,11.46,3.19,16.99,4.9,5.56,1.64,10.9,3.51,16.1,5.41,10.54,3.43,19.99,8.02,29.02,11.67,8.72,4.27,17.04,7.72,23.9,11.73,7.01,3.76,13.36,6.75,18.19,9.85l.44,.26,4.46-6.15Z"/>
            <circle class="cls-4" cx="549.95" cy="144.23" r="17.3"/>
          </g>
        </g>
      </g>
      <g>
        <g class="cls-1">
          <path class="cls-3" d="M1854.14,548.27H493.37c-2.76,0-5-2.24-5-5s2.24-5,5-5H1854.14c2.76,0,5,2.24,5,5s-2.24,5-5,5Z"/>
        </g>
        <g>
          <path class="cls-3" d="M493.37,543.27c0-1.63,1.15-2.69,2.69-2.69,1.44,0,2.78,1.05,2.78,2.69,0,1.44-1.34,2.59-2.78,2.59-1.53,0-2.69-1.15-2.69-2.59Z"/>
          <path class="cls-3" d="M516.2,543.27c0-1.63,1.15-2.69,2.69-2.69,1.44,0,2.78,1.05,2.78,2.69,0,1.44-1.34,2.59-2.78,2.59-1.53,0-2.69-1.15-2.69-2.59Z"/>
          <path class="cls-3" d="M539.03,543.27c0-1.63,1.15-2.69,2.69-2.69,1.44,0,2.78,1.05,2.78,2.69,0,1.44-1.34,2.59-2.78,2.59-1.53,0-2.69-1.15-2.69-2.59Z"/>
          <path class="cls-3" d="M624.5,545.57c-8.06,0-9.78-3.26-9.98-8.63-3.55,5.56-10.17,9.02-16.88,9.02-9.69,0-18.9-5.08-18.9-15.83s10.84-12.76,18.9-12.76c5.85,0,11.32,.67,16.88,2.11-.48-11.03-7.29-17.46-18.9-17.46-3.74,0-7.96,1.05-11.99,3.36l-1.82-3.17c4.41-2.78,9.4-3.84,13.91-3.84,4.12,0,8.15,.67,11.7,2.59,10.55,5.28,10.94,15.16,10.94,24.17,0,2.78-.1,6.14-.1,8.73,0,5.47,.86,8.06,6.24,8.06v3.65Zm-9.98-22.26c-5.66-1.34-11.9-2.4-17.65-2.4-6.62,0-14.77,2.49-14.39,10.17,.29,7.77,8.35,11.22,15.16,11.22,8.25,0,16.88-7.87,16.88-16.5v-2.49Z"/>
          <path class="cls-3" d="M657.78,532.43v-55.93h3.84v55.93c0,6.33,2.97,9.69,9.4,9.69,1.92,0,3.84-.48,5.95-1.25l1.25,3.55c-2.59,.86-4.99,1.54-7.2,1.54-8.73,0-13.24-4.89-13.24-13.53Z"/>
          <path class="cls-3" d="M686.37,524.47c-.1,11.42,8.25,17.55,19.38,17.55,3.65,0,8.44-1.05,12.09-3.36l1.82,3.45c-4.41,2.59-9.59,3.84-14.2,3.84-14.49,0-23.12-9.02-23.12-23.41s7.39-25.23,22.45-25.23c11.61,0,17.36,7.2,17.36,14.39s-6.04,14.87-18.32,14.87c-5.76,0-11.9-.86-17.46-2.11Zm0-4.13c5.66,1.34,11.7,2.4,17.46,2.4,9.59,0,14.39-5.66,14.39-11.13s-4.61-10.55-13.62-10.55c-10.84,0-17.94,8.15-18.23,19.28Z"/>
          <path class="cls-3" d="M775.77,545.57c-8.06,0-9.78-3.26-9.98-8.63-3.55,5.56-10.17,9.02-16.88,9.02-9.69,0-18.9-5.08-18.9-15.83s10.84-12.76,18.9-12.76c5.85,0,11.32,.67,16.88,2.11-.48-11.03-7.29-17.46-18.9-17.46-3.74,0-7.96,1.05-11.99,3.36l-1.82-3.17c4.41-2.78,9.4-3.84,13.91-3.84,4.12,0,8.15,.67,11.7,2.59,10.55,5.28,10.94,15.16,10.94,24.17,0,2.78-.1,6.14-.1,8.73,0,5.47,.86,8.06,6.24,8.06v3.65Zm-9.98-22.26c-5.66-1.34-11.9-2.4-17.65-2.4-6.62,0-14.77,2.49-14.39,10.17,.29,7.77,8.35,11.22,15.16,11.22,8.25,0,16.88-7.87,16.88-16.5v-2.49Z"/>
          <path class="cls-3" d="M823.25,476.5v68.98h-3.93v-4.03c-3.93,3.07-8.83,4.51-13.72,4.51-12.09,0-22.54-9.69-22.54-21.97v-4.89c0-12.28,10.46-21.97,22.54-21.97,4.99,0,9.79,1.53,13.72,4.6v-25.23h3.93Zm-36.26,42.59v4.89c0,10.17,8.54,18.13,18.61,18.13,5.08,0,10.26-2.21,13.72-5.85v-29.35c-3.55-3.74-8.54-6.14-13.72-6.14-10.17,0-18.61,8.25-18.61,18.32Z"/>
          <path class="cls-3" d="M836.3,476.98c0-1.53,1.25-2.78,2.78-2.78,1.44,0,2.78,1.25,2.78,2.78,0,1.34-1.34,2.69-2.78,2.69-1.53,0-2.78-1.34-2.78-2.69Zm.86,68.98v-47.97h3.84v47.97h-3.84Z"/>
          <path class="cls-3" d="M891.84,545.96h-3.84v-29.83c0-7.87-6.62-14.39-14.87-14.39s-14.87,6.52-14.87,14.39l-.1,29.83h-3.84v-47.1h3.84v6.24c3.45-4.32,8.83-7.19,14.97-7.19,10.26,0,18.71,8.35,18.71,18.23v29.83Z"/>
          <path class="cls-3" d="M901.91,525.24v-6.52c0-11.13,9.31-20.43,20.53-20.43,6.62,0,12.95,3.36,16.79,8.73,.86-4.8,4.03-8.25,10.75-8.25v3.84c-4.99,0-7.1,2.3-7.1,6.52l-.19,43.84c0,12.95-8.35,27.72-23.12,27.72-7.58,0-15.16-4.12-15.16-12.76,0-15.06,16.98-17.36,28.3-17.36,2.01,0,4.22,0,6.14,.19,0-4.89,.1-8.06,.1-13.33-3.84,4.8-10.26,8.25-16.5,8.25-11.22,0-20.53-9.3-20.53-20.43Zm3.93-6.52v6.52c0,9.11,7.39,16.6,16.6,16.6,7.77,0,16.02-6.71,16.5-14.77,.1-2.69,.1-6.33,.1-9.02,0-8.83-8.15-15.92-16.6-15.92-9.21,0-16.6,7.48-16.6,16.6Zm2.4,49.12c0,5.85,5.28,8.92,10.84,8.92,12.38,0,19.09-10.74,19.76-22.06-2.21-.19-4.32-.29-6.52-.29-9.11,0-24.08,1.82-24.08,13.43Z"/>
          <path class="cls-3" d="M984.12,524.47c-.1,11.42,8.25,17.55,19.38,17.55,3.65,0,8.44-1.05,12.09-3.36l1.82,3.45c-4.41,2.59-9.59,3.84-14.2,3.84-14.49,0-23.12-9.02-23.12-23.41s7.39-25.23,22.45-25.23c11.61,0,17.36,7.2,17.36,14.39s-6.04,14.87-18.32,14.87c-5.76,0-11.9-.86-17.46-2.11Zm0-4.13c5.66,1.34,11.7,2.4,17.46,2.4,9.59,0,14.39-5.66,14.39-11.13s-4.61-10.55-13.62-10.55c-10.84,0-17.94,8.15-18.23,19.28Z"/>
          <path class="cls-3" d="M1070.55,476.5v68.98h-3.93v-4.03c-3.93,3.07-8.83,4.51-13.72,4.51-12.09,0-22.54-9.69-22.54-21.97v-4.89c0-12.28,10.46-21.97,22.54-21.97,4.99,0,9.79,1.53,13.72,4.6v-25.23h3.93Zm-36.26,42.59v4.89c0,10.17,8.54,18.13,18.61,18.13,5.08,0,10.26-2.21,13.72-5.85v-29.35c-3.55-3.74-8.54-6.14-13.72-6.14-10.17,0-18.61,8.25-18.61,18.32Z"/>
          <path class="cls-3" d="M1080.61,525.24v-6.52c0-11.13,9.31-20.43,20.53-20.43,6.62,0,12.95,3.36,16.79,8.73,.86-4.8,4.03-8.25,10.75-8.25v3.84c-4.99,0-7.1,2.3-7.1,6.52l-.19,43.84c0,12.95-8.35,27.72-23.12,27.72-7.58,0-15.16-4.12-15.16-12.76,0-15.06,16.98-17.36,28.3-17.36,2.01,0,4.22,0,6.14,.19,0-4.89,.1-8.06,.1-13.33-3.84,4.8-10.26,8.25-16.5,8.25-11.22,0-20.53-9.3-20.53-20.43Zm3.93-6.52v6.52c0,9.11,7.39,16.6,16.6,16.6,7.77,0,16.02-6.71,16.5-14.77,.1-2.69,.1-6.33,.1-9.02,0-8.83-8.15-15.92-16.6-15.92-9.21,0-16.6,7.48-16.6,16.6Zm2.4,49.12c0,5.85,5.28,8.92,10.84,8.92,12.38,0,19.09-10.74,19.76-22.06-2.21-.19-4.32-.29-6.52-.29-9.11,0-24.08,1.82-24.08,13.43Z"/>
          <path class="cls-3" d="M1139.7,524.47c-.1,11.42,8.25,17.55,19.38,17.55,3.65,0,8.44-1.05,12.09-3.36l1.82,3.45c-4.41,2.59-9.59,3.84-14.2,3.84-14.49,0-23.12-9.02-23.12-23.41s7.39-25.23,22.45-25.23c11.61,0,17.36,7.2,17.36,14.39s-6.04,14.87-18.32,14.87c-5.76,0-11.9-.86-17.46-2.11Zm0-4.13c5.66,1.34,11.7,2.4,17.46,2.4,9.59,0,14.39-5.66,14.39-11.13s-4.61-10.55-13.62-10.55c-10.84,0-17.94,8.15-18.23,19.28Z"/>
          <path class="cls-3" d="M1208.77,524.85v-6.14c0-11.51,9.59-21.1,21.11-21.1s21.1,9.59,21.1,21.1v6.14c0,11.51-9.59,21.11-21.1,21.11s-21.11-9.59-21.11-21.11Zm3.84-6.14v6.14c0,9.5,7.77,17.27,17.27,17.27s17.27-7.77,17.27-17.27v-6.14c0-9.5-7.77-17.17-17.27-17.17s-17.27,7.67-17.27,17.17Z"/>
          <path class="cls-3" d="M1298.56,545.96h-3.84v-29.83c0-7.87-6.62-14.39-14.87-14.39s-14.87,6.52-14.87,14.39l-.1,29.83h-3.84v-47.1h3.84v6.24c3.45-4.32,8.83-7.19,14.97-7.19,10.26,0,18.71,8.35,18.71,18.23v29.83Z"/>
          <path class="cls-3" d="M1372.23,476.5v68.98h-3.93v-4.03c-3.93,3.07-8.83,4.51-13.72,4.51-12.09,0-22.54-9.69-22.54-21.97v-4.89c0-12.28,10.46-21.97,22.54-21.97,4.99,0,9.79,1.53,13.72,4.6v-25.23h3.93Zm-36.26,42.59v4.89c0,10.17,8.54,18.13,18.61,18.13,5.08,0,10.26-2.21,13.72-5.85v-29.35c-3.55-3.74-8.54-6.14-13.72-6.14-10.17,0-18.61,8.25-18.61,18.32Z"/>
          <path class="cls-3" d="M1385.27,476.98c0-1.53,1.25-2.78,2.78-2.78,1.44,0,2.78,1.25,2.78,2.78,0,1.34-1.34,2.69-2.78,2.69-1.53,0-2.78-1.34-2.78-2.69Zm.86,68.98v-47.97h3.84v47.97h-3.84Z"/>
          <path class="cls-3" d="M1403.4,525.24v-6.52c0-11.13,9.31-20.43,20.53-20.43,6.62,0,12.95,3.36,16.79,8.73,.86-4.8,4.03-8.25,10.75-8.25v3.84c-4.99,0-7.1,2.3-7.1,6.52l-.19,43.84c0,12.95-8.35,27.72-23.12,27.72-7.58,0-15.16-4.12-15.16-12.76,0-15.06,16.98-17.36,28.3-17.36,2.01,0,4.22,0,6.14,.19,0-4.89,.1-8.06,.1-13.33-3.84,4.8-10.26,8.25-16.5,8.25-11.22,0-20.53-9.3-20.53-20.43Zm3.93-6.52v6.52c0,9.11,7.39,16.6,16.6,16.6,7.77,0,16.02-6.71,16.5-14.77,.1-2.69,.1-6.33,.1-9.02,0-8.83-8.15-15.92-16.6-15.92-9.21,0-16.6,7.48-16.6,16.6Zm2.4,49.12c0,5.85,5.28,8.92,10.84,8.92,12.38,0,19.09-10.74,19.76-22.06-2.21-.19-4.32-.29-6.52-.29-9.11,0-24.08,1.82-24.08,13.43Z"/>
          <path class="cls-3" d="M1461.53,476.98c0-1.53,1.25-2.78,2.78-2.78,1.44,0,2.78,1.25,2.78,2.78,0,1.34-1.34,2.69-2.78,2.69-1.53,0-2.78-1.34-2.78-2.69Zm.86,68.98v-47.97h3.84v47.97h-3.84Z"/>
          <path class="cls-3" d="M1486.18,532.34v-30.6h-6.71v-3.74h6.71v-14.68h3.93v14.68h16.6v3.74h-16.6v30.6c0,6.43,2.97,9.79,9.5,9.79,1.73,0,3.45-.38,5.95-1.34l1.34,3.65c-2.78,1.06-5.18,1.54-7.29,1.54-8.92,0-13.43-4.7-13.43-13.62Z"/>
          <path class="cls-3" d="M1559.85,545.57c-8.06,0-9.78-3.26-9.98-8.63-3.55,5.56-10.17,9.02-16.88,9.02-9.69,0-18.9-5.08-18.9-15.83s10.84-12.76,18.9-12.76c5.85,0,11.32,.67,16.88,2.11-.48-11.03-7.29-17.46-18.9-17.46-3.74,0-7.96,1.05-11.99,3.36l-1.82-3.17c4.41-2.78,9.4-3.84,13.91-3.84,4.12,0,8.15,.67,11.7,2.59,10.55,5.28,10.94,15.16,10.94,24.17,0,2.78-.1,6.14-.1,8.73,0,5.47,.86,8.06,6.24,8.06v3.65Zm-9.98-22.26c-5.66-1.34-11.9-2.4-17.65-2.4-6.62,0-14.77,2.49-14.39,10.17,.29,7.77,8.35,11.22,15.16,11.22,8.25,0,16.88-7.87,16.88-16.5v-2.49Z"/>
          <path class="cls-3" d="M1570.02,532.43v-55.93h3.84v55.93c0,6.33,2.97,9.69,9.4,9.69,1.92,0,3.84-.48,5.95-1.25l1.25,3.55c-2.59,.86-4.99,1.54-7.2,1.54-8.73,0-13.24-4.89-13.24-13.53Z"/>
          <path class="cls-3" d="M1617.59,539.15l2.59-2.59c4.41,3.93,10.94,5.76,16.12,5.76,5.85,0,14.1-2.4,14.1-9.4,0-5.18-7.29-7.39-14.87-9.5-8.73-2.49-17.84-5.08-17.84-13.14,0-9.5,10.07-13.05,17.84-13.05,5.95,0,13.62,2.11,18.71,6.71l-2.49,2.78c-4.32-4.03-11.32-5.85-16.21-5.85-5.95,0-14.2,2.4-14.2,9.4,0,5.28,7.29,7.29,14.87,9.4,8.83,2.49,17.94,5.08,17.94,13.24,0,9.4-10.26,13.05-17.84,13.05-5.85,0-13.81-2.11-18.71-6.81Z"/>
          <path class="cls-3" d="M1667.95,537.04v29.45h-3.84v-67.82h3.84v7.87c3.93-4.99,10.84-8.92,17.36-8.92,11.7,0,21.11,9.59,21.11,21.1v6.14c0,11.51-9.4,21.11-21.11,21.11-6.71,0-13.53-3.36-17.36-8.92Zm.1-18.32v6.14c0,9.5,7.77,17.27,17.27,17.27s17.27-7.77,17.27-17.27v-6.14c0-9.5-7.77-17.17-17.27-17.17s-17.27,7.67-17.27,17.17Z"/>
          <path class="cls-3" d="M1760.05,545.57c-8.06,0-9.78-3.26-9.98-8.63-3.55,5.56-10.17,9.02-16.88,9.02-9.69,0-18.9-5.08-18.9-15.83s10.84-12.76,18.9-12.76c5.85,0,11.32,.67,16.88,2.11-.48-11.03-7.29-17.46-18.9-17.46-3.74,0-7.96,1.05-11.99,3.36l-1.82-3.17c4.41-2.78,9.4-3.84,13.91-3.84,4.12,0,8.15,.67,11.7,2.59,10.55,5.28,10.94,15.16,10.94,24.17,0,2.78-.1,6.14-.1,8.73,0,5.47,.86,8.06,6.24,8.06v3.65Zm-9.98-22.26c-5.66-1.34-11.9-2.4-17.65-2.4-6.62,0-14.77,2.49-14.39,10.17,.29,7.77,8.35,11.22,15.16,11.22,8.25,0,16.88-7.87,16.88-16.5v-2.49Z"/>
          <path class="cls-3" d="M1766.95,523.99v-4.89c0-12.28,10.46-21.97,22.54-21.97,6.52,0,13.14,3.07,17.75,8.35l-2.78,2.69c-4.03-4.51-9.5-7.1-14.97-7.1-10.07,0-18.61,7.87-18.61,18.04v4.89c0,10.17,8.54,18.13,18.61,18.13,5.47,0,10.94-2.59,14.97-7.1l2.78,2.59c-4.6,5.28-11.22,8.35-17.75,8.35-12.09,0-22.54-9.69-22.54-21.97Z"/>
          <path class="cls-3" d="M1820.86,524.47c-.1,11.42,8.25,17.55,19.38,17.55,3.65,0,8.44-1.05,12.09-3.36l1.82,3.45c-4.41,2.59-9.59,3.84-14.2,3.84-14.49,0-23.12-9.02-23.12-23.41s7.39-25.23,22.45-25.23c11.61,0,17.36,7.2,17.36,14.39s-6.04,14.87-18.32,14.87c-5.76,0-11.9-.86-17.46-2.11Zm0-4.13c5.66,1.34,11.7,2.4,17.46,2.4,9.59,0,14.39-5.66,14.39-11.13s-4.61-10.55-13.62-10.55c-10.84,0-17.94,8.15-18.23,19.28Z"/>
        </g>
      </g>
    </g>
  </g>
</svg>