<?xml version="1.0" encoding="UTF-8"?>
<svg id="Layer_1" data-name="Layer 1" xmlns="http://www.w3.org/2000/svg" viewBox="0 0 800 250">
  <defs>
    <style>
      .cls-1 {
        fill: #faf7f2;
      }
    </style>
  </defs>
  <path class="cls-1" d="M13.85,123.27c0-41.04,32.51-74.35,74.89-74.35s74.89,33.31,74.89,74.35-32.51,74.35-74.89,74.35S13.85,164.31,13.85,123.27Zm102.34,0c0-22.39-13.33-33.31-27.45-33.31s-27.45,10.93-27.45,33.31,13.32,33.58,27.45,33.58,27.45-11.19,27.45-33.58Zm-37.68-12.28h20.47c2.83,0,5.12,2.29,5.12,5.12v14.33c0,2.83-2.29,5.12-5.12,5.12h-20.47c-2.83,0-5.12-2.29-5.12-5.12v-14.33c0-2.83,2.29-5.12,5.12-5.12Z"/>
  <path class="cls-1" d="M239.57,246.39h-40.24l20.25-53.03L163.62,52.65h39.97l35.71,97.54,32.51-97.54h37.04l-69.29,193.75Z"/>
  <path class="cls-1" d="M305.39,123.27c0-42.37,29.58-73.29,70.62-73.29,45.04,0,74.89,36.51,68.22,82.88h-101c2.4,23.19,13.59,35.98,32.51,35.98,16.26,0,27.18-8,31.45-22.12h36.78c-8,32.25-32.78,50.63-67.42,50.63-42.64,0-71.16-29.58-71.16-74.09Zm38.38-13.86h61.29c-1.07-19.72-12.26-32.25-29.85-32.25s-28.25,11.19-31.45,32.25Z"/>
  <path class="cls-1" d="M467.42,194.96V3.61h18.66V194.96h-18.66Z"/>
  <path class="cls-1" d="M607.6,169.37c-8.26,17.59-25.32,28.25-47.17,28.25-29.05,0-47.97-16.26-47.97-41.57,0-27.45,21.85-41.84,64.49-41.84,8.53,0,14.92,.53,28.78,1.6v-11.73c0-23.45-12.53-37.31-33.85-37.31-22.92,0-37.31,14.12-37.58,37.04h-17.06c.8-31.18,22.39-51.97,54.37-51.97s51.97,19.19,51.97,51.7v91.41h-15.99v-25.58Zm-44.51,14.66c26.12,0,42.64-17.06,42.64-43.44v-12.53c-11.99-1.07-20.25-1.33-27.98-1.33-31.98,0-47.44,9.33-47.44,28.78,0,17.06,13.06,28.52,32.78,28.52Z"/>
  <path class="cls-1" d="M724.33,197.62c-21.59,0-39.71-11.73-49.57-32.25v29.58h-17.32V3.61h18.66V84.09c9.06-20.52,26.92-32.25,48.24-32.25,37.58,0,61.83,29.58,61.83,72.75s-24.25,73.02-61.83,73.02Zm-2.93-129.52c-26.38,0-45.57,20.52-45.57,55.97s18.66,57.3,45.57,57.3,45.84-21.05,45.84-56.76-18.39-56.5-45.84-56.5Z"/>
</svg>